<svg version="1.2" xmlns="http://www.w3.org/2000/svg" viewBox="0 0 512 321" width="512" height="321">
	<title>bike-svgrepo-com-svg</title>
	<style>
		.s0 { fill: #666666 } 
	</style>
	<filter id="f0">
		<feFlood flood-color="#666666" flood-opacity="1" />
		<feBlend mode="normal" in2="SourceGraphic"/>
		<feComposite in2="SourceAlpha" operator="in" />
	</filter>
	<g id="Layer" filter="url(#f0)">
		<path id="Layer" fill-rule="evenodd" class="s0" d="m311.3 238.6c-25 0-81.2 0-81.2 0 0 0-21.8-0.5-23.3-28.2l-1.4 3.1c0-1-11.3-10.7-11.7-11.6-9.7-28.7-22.3-50.2-38.3-64.9l-16 26.8c19.9 15.8 32.7 40.1 32.7 67.5 0 47.5-38.5 86-86 86-47.6 0-86.1-38.5-86.1-86 0-47.6 38.5-86.1 86.1-86.1 12.7 0 24.7 2.9 35.6 7.8l16.7-28.1c-17.3-9.7-38-13.5-62.8-11.7-15.1 1.2-29.3 5.4-41.9 12l-5.8-17.2c15.5-9 33.2-14.8 52.3-16.2 24.9-1.8 48.6 3.9 68.8 15.2l14.7-24.6c-12.7 2.1-33.5 4-33.5 4v-60.5c28 1.4 47.6 14.9 52.7 18.8l11.9-24.6c4.6-9.4 14.2-15.4 24.7-15.4h52.1c5 0 4.6 4 4.6 9.1 0 5 0.4 9-4.6 9h-52.1c-3.6 0-6.8 2.1-8.4 5.3l-9.6 19.8c1.8-0.6 3.5-1.5 5.2-3 9.5-8.7 18.2 5.2 22.5 8.6 4.3 3.5 32 30.3 38 36.4 6.1 6 50.2 12.1 110.7-11.3 60.6-23.3 110.7-18.1 110.7-18.1v25c-20.7 6.1-146.1 34.6-177.3 153.1zm-189.8-44.6l-18.7 31.6c0.6 1.8 1 3.7 1 5.7 0 9.8-8 17.7-17.7 17.7-9.8 0-17.8-7.9-17.8-17.7 0-9.7 7.8-17.6 17.4-17.7l18.2-30.6c-5.6-2-11.6-3.2-17.8-3.2-28.5 0-51.5 23.1-51.5 51.5 0 28.4 23 51.4 51.5 51.4 28.4 0 51.4-23 51.4-51.4 0-14.7-6.2-27.9-16-37.3zm76.1-36.9c-5.3-22-12.1-45.8-18.1-60.7l-13.3 22.4c12.9 10.4 23.6 23.4 31.4 38.3z"/>
		<path id="Layer" fill-rule="evenodd" class="s0" d="m512 231.3c0 47.5-38.5 86-86.1 86-47.5 0-86-38.5-86-86 0-47.6 38.5-86.1 86-86.1 47.6 0 86.1 38.5 86.1 86.1zm-34.6 0c0-28.4-23-51.5-51.5-51.5-28.4 0-51.4 23.1-51.4 51.5 0 28.4 23 51.4 51.4 51.4 28.5 0 51.5-23 51.5-51.4z"/>
		<path id="Layer" class="s0" d="m425.9 213.5c-9.7 0-17.7 8-17.7 17.8 0 9.8 8 17.7 17.7 17.7 9.8 0 17.8-7.9 17.8-17.7 0-9.8-8-17.8-17.8-17.8z"/>
	</g>
</svg>