<svg version="1.2" xmlns="http://www.w3.org/2000/svg" viewBox="0 0 24 24" width="24" height="24">
	<title>car-svgrepo-com-svg</title>
	<style>
		.s0 { fill: #666666 } 
	</style>
	<path id="Layer" fill-rule="evenodd" class="s0" d="m3 11.5l0.8-1.2q0 0 0 0 0.1-0.1 0.1-0.1 0-0.1 0-0.1 0-0.1 0.1-0.1h-1q-0.1 0-0.2 0-0.1-0.1-0.2-0.1-0.1-0.1-0.2-0.1-0.1-0.1-0.1-0.2l-0.3-0.5q0-0.2 0-0.4 0-0.2 0.1-0.3 0.1-0.2 0.2-0.3 0.2-0.1 0.4-0.1h1.7l0.3-1.5q0.1-0.4 0.2-0.7 0.2-0.3 0.5-0.6 0.2-0.3 0.5-0.4 0.3-0.2 0.7-0.3 2.2-0.5 5.4-0.5 3.2 0 5.4 0.5 0.4 0.1 0.7 0.3 0.3 0.1 0.5 0.4 0.3 0.3 0.5 0.6 0.1 0.3 0.2 0.7l0.3 1.5h1.7q0.2 0 0.4 0.1 0.1 0.1 0.2 0.3 0.1 0.1 0.1 0.3 0 0.2 0 0.4l-0.3 0.5q0 0.1-0.1 0.2-0.1 0-0.2 0.1-0.1 0-0.2 0.1-0.1 0-0.2 0h-1q0.1 0 0.1 0.1 0 0 0 0.1 0 0 0.1 0.1 0 0 0 0l0.8 1.2q0.2 0.4 0.4 0.8 0.2 0.4 0.3 0.8 0.2 0.4 0.2 0.8 0.1 0.5 0.1 0.9v6.5q0 0.1-0.1 0.2 0 0.2-0.1 0.3-0.1 0.1-0.3 0.1-0.1 0.1-0.3 0.1h-1.6q-0.1 0-0.2 0-0.1-0.1-0.2-0.2-0.2-0.1-0.2-0.2-0.1-0.1-0.1-0.2l-0.4-2.4h-13l-0.4 2.4q0 0.1-0.1 0.2 0 0.1-0.2 0.2-0.1 0.1-0.2 0.2-0.1 0-0.2 0h-1.7c-0.4 0-0.7-0.3-0.7-0.8v-6.4c0-1.2 0.3-2.3 1-3.3zm14.3-4.7q0 0 0-0.1-0.1-0.1-0.1-0.1-0.1-0.1-0.1-0.1-0.1 0-0.1 0-2-0.5-5-0.5-3 0-5 0.5 0 0-0.1 0 0 0-0.1 0.1 0 0-0.1 0.1 0 0.1 0 0.1l-0.7 3.2q-0.1 0.5-0.3 1h12.6q-0.1-0.1-0.1-0.2-0.1-0.2-0.1-0.3 0-0.1-0.1-0.2 0-0.2 0-0.3zm-11.9 9.2c0.4 0 0.8-0.2 1.1-0.5 0.3-0.3 0.4-0.6 0.4-1 0-0.4-0.1-0.8-0.4-1.1-0.3-0.3-0.7-0.4-1.1-0.4-0.4 0-0.7 0.1-1 0.4-0.3 0.3-0.5 0.7-0.5 1.1 0 0.4 0.2 0.7 0.5 1 0.3 0.3 0.6 0.5 1 0.5zm14.1-2.6c-0.3-0.3-0.7-0.4-1.1-0.4-0.4 0-0.7 0.1-1 0.4-0.3 0.3-0.5 0.7-0.5 1.1 0 0.4 0.2 0.7 0.5 1 0.3 0.3 0.6 0.5 1 0.5 0.4 0 0.8-0.2 1.1-0.5 0.3-0.3 0.4-0.6 0.4-1 0-0.4-0.1-0.8-0.4-1.1z"/>
</svg>