<svg version="1.2" xmlns="http://www.w3.org/2000/svg" viewBox="0 0 640 334" width="640" height="334">
	<title>oil-can-svgrepo-com-svg</title>
	<style>
		.s0 { fill: #666666 } 
	</style>
	<path id="Layer" fill-rule="evenodd" class="s0" d="m640 79v18.1c0 2.1-0.9 4.1-2.4 5.6l-212.2 214.8c-6 6.1-14.2 9.5-22.8 9.5h-274.6c-17.7 0-32-14.3-32-32v-46.5l-69.7-12.7c-15.2-2.8-26.3-16.1-26.3-31.5v-95c0-17.9 14.7-32 31.9-32q0.8 0 1.5 0.1 0.7 0 1.4 0.1 0.8 0 1.5 0.1 0.7 0.1 1.4 0.3l138.3 25.1h56v-48h-56c-8.8 0-16-7.2-16-16v-16c0-8.8 7.2-16 16-16h160c8.8 0 16 7.2 16 16v16c0 8.8-7.2 16-16 16h-56v48h56.9q3.7 0 7.4 0.4 3.7 0.5 7.3 1.3 3.6 0.9 7.1 2.1 3.5 1.3 6.8 3l50.5 25.2 213.8-63.7c5.1-1.5 10.2 2.4 10.2 7.7zm-544 58.2l-48-8.7v62.4l48 8.8zm496 61.7c0 0 42.7 61.8 42.7 85.4 0 23.5-19.1 42.6-42.7 42.6-23.6 0-42.7-19.1-42.7-42.6 0-23.6 42.7-85.4 42.7-85.4z"/>
</svg>