<svg version="1.2" xmlns="http://www.w3.org/2000/svg" viewBox="0 0 24 24" width="24" height="24">
	<title>setting-2-svgrepo-com-svg</title>
	<style>
		.s0 { fill: #666666 } 
	</style>
	<path id="Layer" fill-rule="evenodd" class="s0" d="m22 11.1v1.8c0 1-0.9 1.9-1.9 1.9-1.8 0-2.5 1.3-1.6 2.8 0.5 0.9 0.2 2.1-0.7 2.6l-1.8 1c-0.8 0.5-1.8 0.2-2.2-0.6l-0.1-0.2c-1-1.5-2.4-1.5-3.3 0l-0.1 0.2c-0.5 0.8-1.5 1.1-2.3 0.6l-1.8-1c-0.9-0.5-1.2-1.7-0.7-2.6 0.9-1.5 0.2-2.8-1.6-2.8-1.1 0-1.9-0.9-1.9-1.9v-1.8c0-1 0.9-1.9 1.9-1.9 1.8 0 2.6-1.3 1.6-2.8-0.5-0.9-0.2-2.1 0.7-2.6l1.8-1c0.8-0.5 1.8-0.2 2.2 0.6l0.1 0.2c0.9 1.6 2.4 1.6 3.3 0l0.1-0.2c0.5-0.8 1.5-1.1 2.3-0.6l1.8 1c0.9 0.5 1.2 1.7 0.6 2.6-0.8 1.5-0.1 2.8 1.7 2.8 1 0 1.9 0.9 1.9 1.9zm-6.8 0.9c0-1.8-1.4-3.2-3.2-3.2-1.8 0-3.3 1.4-3.3 3.2 0 1.8 1.5 3.3 3.3 3.3 1.8 0 3.3-1.5 3.3-3.3z"/>
</svg>