<svg version="1.2" xmlns="http://www.w3.org/2000/svg" viewBox="0 0 32 32" width="32" height="32">
	<title>truck-svgrepo-com-svg</title>
	<style>
		.s0 { fill: #666666 } 
	</style>
	<path id="Layer" fill-rule="evenodd" class="s0" d="m27 13c-0.6 0-1 0-1 0h-2v1.3c0.6 0.3 1 0.9 1 1.7v6.9h-19v-6.9c0-0.7 0.4-1.4 1-1.7v-1.3c0 0-2.4 0-3 0-0.5 0-1-0.4-1-1v-1c0-0.6 0.5-1 1-1 0.6 0 1 0 1 0v2h2v-3c0-1.1 0.9-2 2-2h13c1.1 0 2 0.9 2 2v3h2v-2c0 0 0.4 0 1 0 0.5 0 1 0.4 1 1v1c0 0.6-0.5 1-1 1zm-15 9h7v-1h-7zm0-2h7v-1h-7zm0-2h7v-1h-7zm-4 3c0 0.6 0.5 1 1 1h1c0.6 0 1-0.4 1-1 0-0.6-0.4-1-1-1h-1c-0.5 0-1 0.4-1 1zm14-11c0-0.6-0.4-1-1-1h-11c-0.5 0-1 0.4-1 1v5h13zm0 10h-1c-0.5 0-1 0.4-1 1 0 0.6 0.5 1 1 1h1c0.6 0 1-0.4 1-1 0-0.6-0.4-1-1-1zm1-14h-15c-1.1 0-2 0.9-2 2v-5c0-0.6 0.5-1 1-1h17c0.6 0 1 0.4 1 1v5c0-1.1-0.9-2-2-2zm2 18.9c0 0.6-0.4 1-1 1h-17c-0.5 0-1-0.4-1-1 0-0.5 0-1 0-1h19c0 0 0 0.5 0 1zm-14 4.1c0 0.6-0.4 1-1 1h-1c-0.5 0-1-0.4-1-1v-2h3zm12 0c0 0.6-0.4 1-1 1h-1c-0.5 0-1-0.4-1-1v-2h3z"/>
</svg>